<?xml version="1.0" encoding="utf-8"?>
<svg version="1.1" xmlns="http://www.w3.org/2000/svg" xmlns:xlink="http://www.w3.org/1999/xlink" x="0px" y="0px"
	 viewBox="0 0 16 16" style="enable-background:new 0 0 16 16;" xml:space="preserve">
<style type="text/css">
	.st0{fill:#222222;}
</style>
<path class="st0" d="M8,0.9c3.9,0,7.1,3.2,7.1,7.1s-3.2,7.1-7.1,7.1S0.9,11.9,0.9,8S4.1,0.9,8,0.9 M8,0C3.6,0,0,3.6,0,8
	s3.6,8,8,8s8-3.6,8-8S12.4,0,8,0L8,0z"/>
<path class="st0" d="M8,3.4c2.5,0,4.6,2.1,4.6,4.6S10.5,12.6,8,12.6S3.4,10.5,3.4,8S5.5,3.4,8,3.4 M8,2.5C5,2.5,2.5,5,2.5,8
	s2.5,5.5,5.5,5.5s5.5-2.5,5.5-5.5S11,2.5,8,2.5L8,2.5z"/>
<circle class="st0" cx="8" cy="8" r="2.5"/>
</svg>
